[Header]
FileType HTR
DataType HTRS
FileVersion 1
NumSegments 64
NumFrames 3
DataFrameRate 30
EulerRotationOrder ZYX
CalibrationUnits mm
RotationUnits Degrees
GlobalAxisofGravity Y
BoneLengthAxis Y
ScaleFactor 1.0
[SegmentNames&Hierarchy]
Hips	GLOBAL
Spine	Hips
Spine1	Spine
Spine2	Spine1
Neck	Spine2
Head	Neck
LeftEye	Head
RightEye	Head
LeftShoulder	Spine2
LeftArm	LeftShoulder
LeftForeArm	LeftArm
LeftHand	LeftForeArm
LeftHandThumb1	LeftHand
LeftHandThumb2	LeftHandThumb1
LeftHandThumb3	LeftHandThumb2
LeftHandThumb4	LeftHandThumb3
LeftHandIndex1	LeftHand
LeftHandIndex2	LeftHandIndex1
LeftHandIndex3	LeftHandIndex2
LeftHandIndex4	LeftHandIndex3
LeftHandMiddle1	LeftHand
LeftHandMiddle2	LeftHandMiddle1
LeftHandMiddle3	LeftHandMiddle2
LeftHandMiddle4	LeftHandMiddle3
LeftHandRing1	LeftHand
LeftHandRing2	LeftHandRing1
LeftHandRing3	LeftHandRing2
LeftHandRing4	LeftHandRing3
LeftHandPinky1	LeftHand
LeftHandPinky2	LeftHandPinky1
LeftHandPinky3	LeftHandPinky2
LeftHandPinky4	LeftHandPinky3
RightShoulder	Spine2
RightArm	RightShoulder
RightForeArm	RightArm
RightHand	RightForeArm
RightHandPinky1	RightHand
RightHandPinky2	RightHandPinky1
RightHandPinky3	RightHandPinky2
RightHandPinky4	RightHandPinky3
RightHandRing1	RightHand
RightHandRing2	RightHandRing1
RightHandRing3	RightHandRing2
RightHandRing4	RightHandRing3
RightHandMiddle1	RightHand
RightHandMiddle2	RightHandMiddle1
RightHandMiddle3	RightHandMiddle2
RightHandMiddle4	RightHandMiddle3
RightHandIndex1	RightHand
RightHandIndex2	RightHandIndex1
RightHandIndex3	RightHandIndex2
RightHandIndex4	RightHandIndex3
RightHandThumb1	RightHand
RightHandThumb2	RightHandThumb1
RightHandThumb3	RightHandThumb2
RightHandThumb4	RightHandThumb3
LeftUpLeg	Hips
LeftLeg	LeftUpLeg
LeftFoot	LeftLeg
LeftToeBase	LeftFoot
RightUpLeg	Hips
RightLeg	RightUpLeg
RightFoot	RightLeg
RightToeBase	RightFoot
[BasePosition]
Hips	0	0	0	0	0	0	1
Spine	0	0	0	0	0	0	1
Spine1	0	0	0	0	0	0	1
Spine2	0	0	0	0	0	0	1
Neck	0	0	0	0	0	0	1
Head	0	0	0	0	0	0	1
LeftEye	0	0	0	0	0	0	1
RightEye	0	0	0	0	0	0	1
LeftShoulder	0	0	0	0	0	0	1
LeftArm	0	0	0	0	0	0	1
LeftForeArm	0	0	0	0	0	0	1
LeftHand	0	0	0	0	0	0	1
LeftHandThumb1	0	0	0	0	0	0	1
LeftHandThumb2	0	0	0	0	0	0	1
LeftHandThumb3	0	0	0	0	0	0	1
LeftHandThumb4	0	0	0	0	0	0	1
LeftHandIndex1	0	0	0	0	0	0	1
LeftHandIndex2	0	0	0	0	0	0	1
LeftHandIndex3	0	0	0	0	0	0	1
LeftHandIndex4	0	0	0	0	0	0	1
LeftHandMiddle1	0	0	0	0	0	0	1
LeftHandMiddle2	0	0	0	0	0	0	1
LeftHandMiddle3	0	0	0	0	0	0	1
LeftHandMiddle4	0	0	0	0	0	0	1
LeftHandRing1	0	0	0	0	0	0	1
LeftHandRing2	0	0	0	0	0	0	1
LeftHandRing3	0	0	0	0	0	0	1
LeftHandRing4	0	0	0	0	0	0	1
LeftHandPinky1	0	0	0	0	0	0	1
LeftHandPinky2	0	0	0	0	0	0	1
LeftHandPinky3	0	0	0	0	0	0	1
LeftHandPinky4	0	0	0	0	0	0	1
RightShoulder	0	0	0	0	0	0	1
RightArm	0	0	0	0	0	0	1
RightForeArm	0	0	0	0	0	0	1
RightHand	0	0	0	0	0	0	1
RightHandPinky1	0	0	0	0	0	0	1
RightHandPinky2	0	0	0	0	0	0	1
RightHandPinky3	0	0	0	0	0	0	1
RightHandPinky4	0	0	0	0	0	0	1
RightHandRing1	0	0	0	0	0	0	1
RightHandRing2	0	0	0	0	0	0	1
RightHandRing3	0	0	0	0	0	0	1
RightHandRing4	0	0	0	0	0	0	1
RightHandMiddle1	0	0	0	0	0	0	1
RightHandMiddle2	0	0	0	0	0	0	1
RightHandMiddle3	0	0	0	0	0	0	1
RightHandMiddle4	0	0	0	0	0	0	1
RightHandIndex1	0	0	0	0	0	0	1
RightHandIndex2	0	0	0	0	0	0	1
RightHandIndex3	0	0	0	0	0	0	1
RightHandIndex4	0	0	0	0	0	0	1
RightHandThumb1	0	0	0	0	0	0	1
RightHandThumb2	0	0	0	0	0	0	1
RightHandThumb3	0	0	0	0	0	0	1
RightHandThumb4	0	0	0	0	0	0	1
LeftUpLeg	0	0	0	0	0	0	1
LeftLeg	0	0	0	0	0	0	1
LeftFoot	0	0	0	0	0	0	1
LeftToeBase	0	0	0	0	0	0	1
RightUpLeg	0	0	0	0	0	0	1
RightLeg	0	0	0	0	0	0	1
RightFoot	0	0	0	0	0	0	1
RightToeBase	0	0	0	0	0	0	1
[Hips]
3	116.2278824	1012.651123	15.49787617	6.246982574	65.75947571	-1.766022921	1.0
4	168.1980133	1009.342651	17.84613037	5.15574646	65.03347778	-3.272640705	1.0
5	223.9398346	999.3352661	19.10720634	2.386928082	63.71409607	-6.499614716	1.0
[Spine]
3	0	101.8159943	1.315000057	5.880520344	-6.468541622	-0.5581635833	1.0
4	0	101.8159943	1.315000057	5.725247383	-5.360609531	0.0555587709	1.0
5	0	101.8159943	1.315000057	5.485770702	-3.877723694	1.516869068	1.0
[Spine1]
3	0	100.8349991	-10.00800037	4.224083424	-4.634297848	0.3006285429	1.0
4	0	100.8349991	-10.00800037	4.108426094	-4.398005486	0.3004724085	1.0
5	0	100.8349991	-10.00800037	3.879606485	-4.04445076	0.6089791059	1.0
[Spine2]
3	0	91	-13.73399925	4.198918343	-4.662653923	0.2757744193	1.0
4	0	91	-13.73399925	4.09528017	-4.413562775	0.2747384012	1.0
5	0	91	-13.73399925	3.884736776	-4.039025784	0.5904032588	1.0
[Neck]
3	0	166.7169952	-25.16200066	4.632053852	-6.007474899	-1.017559052	1.0
4	0	166.7169952	-25.16200066	4.29987812	-6.051246166	-1.186850786	1.0
5	0	166.7169952	-25.16200066	3.991116047	-6.121207237	-1.361588717	1.0
[Head]
3	0	96.17900085	16.84999847	-12.05932522	-34.43917465	12.43001747	1.0
4	0	96.17900085	16.84999847	-12.82641792	-34.63001251	12.99664307	1.0
5	0	96.17900085	16.84999847	-13.67297173	-34.80870819	13.3727417	1.0
[LeftEye]
3	30.6760006	64.09500122	92.83599854	0	0	0	1.0
4	30.6760006	64.09500122	92.83599854	0	0	0	1.0
5	30.6760006	64.09500122	92.83599854	0	0	0	1.0
[RightEye]
3	-30.6760006	64.09500122	92.83499908	0	0	0	1.0
4	-30.6760006	64.09500122	92.83499908	0	0	0	1.0
5	-30.6760006	64.09500122	92.83499908	0	0	0	1.0
[LeftShoulder]
3	45.70400238	109.4599991	-26.28000069	2.079600334	-6.808149338	-9.9424963	1.0
4	45.70400238	109.4599991	-26.28000069	2.175543547	-6.202085972	-9.973653793	1.0
5	45.70400238	109.4599991	-26.28000069	2.274810553	-5.56441021	-9.977577209	1.0
[LeftArm]
3	105.923996	-5.24600029	-22.32099915	30.18619156	-16.37559128	-55.65194702	1.0
4	105.923996	-5.24600029	-22.32099915	28.98324966	-11.9868412	-54.90687561	1.0
5	105.923996	-5.24600029	-22.32099915	27.8668232	-7.921741962	-55.01229095	1.0
[LeftForeArm]
3	278.414978	-0.0009999999311	0	1.135945354e-06	-18.70055771	-0.0002061631385	1.0
4	278.414978	-0.0009999999311	0	4.059986168e-06	-21.30739594	-0.0002154992399	1.0
5	278.414978	-0.0009999999311	0	1.801505391e-06	-23.34814644	-0.0002018233208	1.0
[LeftHand]
3	283.2879944	0	0	-3.353910685	-3.552395821	4.132170677	1.0
4	283.2879944	0	0	-4.638492584	-3.713235855	3.904029608	1.0
5	283.2879944	0	0	-5.008933544	-3.419991016	3.63522315	1.0
[LeftHandThumb1]
3	24.6609993	-15.75	26.8239994	0.9464570284	1.151123047	0.2541034818	1.0
4	24.6609993	-15.75	26.8239994	0.9464570284	1.151123047	0.2541034818	1.0
5	24.6609993	-15.75	26.8239994	0.9464570284	1.151123047	0.2541034818	1.0
[LeftHandThumb2]
3	32.29800034	-18.64699936	18.64699936	13.14962292	2.01726985	18.59158134	1.0
4	32.29800034	-18.64699936	18.64699936	13.76080608	1.486172795	18.29961205	1.0
5	32.29800034	-18.64699936	18.64699936	14.89478016	0.8203116655	17.74200439	1.0
[LeftHandThumb3]
3	26.52600098	-15.31499958	15.31499958	-2.476846695	-11.6098547	22.02433395	1.0
4	26.52600098	-15.31499958	15.31499958	-2.54142642	-11.77786446	22.01915932	1.0
5	26.52600098	-15.31499958	15.31499958	-2.710597038	-12.20962048	22.0412426	1.0
[LeftHandThumb4]
3	19.54599953	-11.28499985	11.28499985	0	0	0	1.0
4	19.54599953	-11.28499985	11.28499985	0	0	0	1.0
5	19.54599953	-11.28499985	11.28499985	0	0	0	1.0
[LeftHandIndex1]
3	91.09299469	-5.170999527	22.60099792	-1.437836409	-1.63059175	-24.73516846	1.0
4	91.09299469	-5.170999527	22.60099792	-1.448195577	-1.54707396	-24.83228874	1.0
5	91.09299469	-5.170999527	22.60099792	-1.48364675	-1.262755275	-25.3109169	1.0
[LeftHandIndex2]
3	36.76399994	0	0	-0.1278211176	1.215612769	-12.00479412	1.0
4	36.76399994	0	0	-0.1281469017	1.217140675	-12.02010155	1.0
5	36.76399994	0	0	-0.1284901053	1.218764186	-12.03633595	1.0
[LeftHandIndex3]
3	28.83100128	0	0	-0.1330004334	1.239710808	-12.24646378	1.0
4	28.83100128	0	0	-0.1333333254	1.241246343	-12.26186371	1.0
5	28.83100128	0	0	-0.1336893439	1.242875576	-12.27821922	1.0
[LeftHandIndex4]
3	23.92700005	0	0	0	0	0	1.0
4	23.92700005	0	0	0	0	0	1.0
5	23.92700005	0	0	0	0	0	1.0
[LeftHandMiddle1]
3	95.33399963	0	0	-2.00702858	3.069666862	-31.19410896	1.0
4	95.33399963	0	0	-2.008764982	3.225651503	-31.21007919	1.0
5	95.33399963	0	0	-2.02805686	3.487604141	-31.4224472	1.0
[LeftHandMiddle2]
3	36.98199844	0	0	-0.3004674315	1.849568009	-18.45294571	1.0
4	36.98199844	0	0	-0.3006277084	1.850051403	-18.45794296	1.0
5	36.98199844	0	0	-0.3011360466	1.851574183	-18.47369766	1.0
[LeftHandMiddle3]
3	29.50900078	0	0	-0.1075939313	1.11627984	-11.01071739	1.0
4	29.50900078	0	0	-0.1076933742	1.116785645	-11.01577091	1.0
5	29.50900078	0	0	-0.1080028415	1.118369818	-11.03160477	1.0
[LeftHandMiddle4]
3	28.3390007	0	0	0	0	0	1.0
4	28.3390007	0	0	0	0	0	1.0
5	28.3390007	0	0	0	0	0	1.0
[LeftHandRing1]
3	91.04499817	-0.4390000105	-18.65100098	-2.126053095	7.183029175	-32.52919388	1.0
4	91.04499817	-0.4390000105	-18.65100098	-2.132004499	7.243071079	-32.59679031	1.0
5	91.04499817	-0.4390000105	-18.65100098	-2.160621881	7.319060326	-32.91526794	1.0
[LeftHandRing2]
3	31.54000092	0	0	-0.4771267474	2.312278509	-23.31521797	1.0
4	31.54000092	0	0	-0.4757946432	2.309183598	-23.2821312	1.0
5	31.54000092	0	0	-0.472946167	2.302553415	-23.2112999	1.0
[LeftHandRing3]
3	29.37700081	0	0	-0.3441662788	1.975641966	-19.76226234	1.0
4	29.37700081	0	0	-0.3430040479	1.972402096	-19.72848701	1.0
5	29.37700081	0	0	-0.3405342698	1.96550715	-19.65660095	1.0
[LeftHandRing4]
3	26.47500038	0	0	0	0	0	1.0
4	26.47500038	0	0	0	0	0	1.0
5	26.47500038	0	0	0	0	0	1.0
[LeftHandPinky1]
3	80.77799988	-4.887000084	-38.06099701	-2.471907854	4.958616257	-36.24000931	1.0
4	80.77799988	-4.887000084	-38.06099701	-2.471317768	4.906801224	-36.23388672	1.0
5	80.77799988	-4.887000084	-38.06099701	-2.486296654	4.781401157	-36.39396286	1.0
[LeftHandPinky2]
3	36	0	0	-0.510266006	2.387639999	-24.12339592	1.0
4	36	0	0	-0.5074994564	2.381453514	-24.0568676	1.0
5	36	0	0	-0.5023433566	2.369880676	-23.93250465	1.0
[LeftHandPinky3]
3	21.14200211	0	0	-0.2260739952	1.609665513	-15.98865604	1.0
4	21.14200211	0	0	-0.224140957	1.602898002	-15.91961956	1.0
5	21.14200211	0	0	-0.2205518484	1.590263844	-15.79077148	1.0
[LeftHandPinky4]
3	19.75699997	0	0	0	0	0	1.0
4	19.75699997	0	0	0	0	0	1.0
5	19.75699997	0	0	0	0	0	1.0
[RightShoulder]
3	-45.70000076	109.4620056	-26.28000069	0.2013722807	-0.1325482428	9.505330086	1.0
4	-45.70000076	109.4620056	-26.28000069	0.1218412891	0.7096045017	9.349179268	1.0
5	-45.70000076	109.4620056	-26.28000069	0.06484677643	1.716185093	9.243048668	1.0
[RightArm]
3	-105.9280014	-5.248000145	-22.32099915	17.87189293	9.493730545	66.23344421	1.0
4	-105.9280014	-5.248000145	-22.32099915	17.82934952	10.56471634	65.85255432	1.0
5	-105.9280014	-5.248000145	-22.32099915	17.36028671	11.52607059	64.76846313	1.0
[RightForeArm]
3	-278.414978	0	0	-3.500534149e-06	15.6239109	-9.384281839e-06	1.0
4	-278.414978	0	0	-5.442082511e-06	18.1273632	-6.278367891e-06	1.0
5	-278.414978	0	0	-4.871229066e-06	20.55358505	-2.609441026e-06	1.0
[RightHand]
3	-283.2879944	0	0.0009999999311	6.75970459	7.978143215	4.536641598	1.0
4	-283.2879944	0	0.0009999999311	7.505411148	8.370725632	4.705997944	1.0
5	-283.2879944	0	0.0009999999311	7.910297871	8.667319298	4.620020866	1.0
[RightHandPinky1]
3	-80.76699829	-4.885000229	-38.06000137	-1.713414073	-2.127360582	29.74715233	1.0
4	-80.76699829	-4.885000229	-38.06000137	-1.747805476	-1.355604887	30.22804832	1.0
5	-80.76699829	-4.885000229	-38.06000137	-1.776234984	-0.5341114998	30.6353569	1.0
[RightHandPinky2]
3	-36	0	0.0009999999311	-0.375187844	-1.827556014	23.22008896	1.0
4	-36	0	0.0009999999311	-0.37896806	-1.836369634	23.33863449	1.0
5	-36	0	0.0009999999311	-0.3824038506	-1.844301224	23.445467	1.0
[RightHandPinky3]
3	-21.14200211	0	0	-0.4279637337	-1.94603169	24.8035984	1.0
4	-21.14200211	0	0	-0.4317200482	-1.954124689	24.9139061	1.0
5	-21.14200211	0	0	-0.4382285178	-1.968064427	25.10399055	1.0
[RightHandPinky4]
3	-19.75699997	0	0	0	0	0	1.0
4	-19.75699997	0	0	0	0	0	1.0
5	-19.75699997	0	0	0	0	0	1.0
[RightHandRing1]
3	-91.03599548	-0.4390000105	-18.65100098	-1.958698392	-2.582774162	33.14863586	1.0
4	-91.03599548	-0.4390000105	-18.65100098	-2.02874732	-2.346958637	34.04589462	1.0
5	-91.03599548	-0.4390000105	-18.65100098	-2.121361732	-1.992964029	35.22408676	1.0
[RightHandRing2]
3	-31.54000092	0	0	-0.7065671682	-2.460444689	32.04076004	1.0
4	-31.54000092	0	0	-0.702947557	-2.454648495	31.95621109	1.0
5	-31.54000092	0	0	-0.6972151995	-2.445440769	31.82207108	1.0
[RightHandRing3]
3	-29.37700081	0	0	-0.784907937	-2.581277132	33.82184219	1.0
4	-29.37700081	0	0	-0.7810299397	-2.575494051	33.73573303	1.0
5	-29.37700081	0	0	-0.774894774	-2.566299438	33.59894943	1.0
[RightHandRing4]
3	-26.47500038	0	0	0	0	0	1.0
4	-26.47500038	0	0	0	0	0	1.0
5	-26.47500038	0	0	0	0	0	1.0
[RightHandMiddle1]
3	-95.32500458	0	0	-2.244479895	-1.017193198	36.79193115	1.0
4	-95.32500458	0	0	-2.307988882	-1.101775765	37.57261658	1.0
5	-95.32500458	0	0	-2.383270264	-1.2425313	38.4916954	1.0
[RightHandMiddle2]
3	-36.98199844	0	0	-0.4373724461	-1.966253281	25.07919312	1.0
4	-36.98199844	0	0	-0.4402047694	-1.972284198	25.16158867	1.0
5	-36.98199844	0	0	-0.4442558885	-1.98088944	25.27919006	1.0
[RightHandMiddle3]
3	-29.50900078	0	0	-0.304587245	-1.655287385	20.87667084	1.0
4	-29.50900078	0	0	-0.3070051372	-1.661578894	20.96000099	1.0
5	-29.50900078	0	0	-0.3104640841	-1.670563459	21.07896423	1.0
[RightHandMiddle4]
3	-28.3390007	0	0.0009999999311	0	0	0	1.0
4	-28.3390007	0	0.0009999999311	0	0	0	1.0
5	-28.3390007	0	0.0009999999311	0	0	0	1.0
[RightHandIndex1]
3	-91.08300018	-5.167999744	22.60099792	-1.158382177	6.835519314	23.17480659	1.0
4	-91.08300018	-5.167999744	22.60099792	-1.292247891	6.717975616	25.09000206	1.0
5	-91.08300018	-5.167999744	22.60099792	-1.47239852	6.536103249	27.64619827	1.0
[RightHandIndex2]
3	-36.76399994	0	0	-0.574457407	-2.235723734	28.81722641	1.0
4	-36.76399994	0	0	-0.5741775036	-2.235217094	28.81005478	1.0
5	-36.76399994	0	0	-0.5713664889	-2.230093718	28.7378006	1.0
[RightHandIndex3]
3	-28.83100128	0	0	-0.2374461144	-1.465210915	18.40938377	1.0
4	-28.83100128	0	0	-0.2372630388	-1.46465528	18.40213966	1.0
5	-28.83100128	0	0	-0.2354033142	-1.459044933	18.32917595	1.0
[RightHandIndex4]
3	-23.92700005	0	0	0	0	0	1.0
4	-23.92700005	0	0	0	0	0	1.0
5	-23.92700005	0	0	0	0	0	1.0
[RightHandThumb1]
3	-24.64799881	-15.72700024	26.82600021	30.15343666	21.14214134	-10.25145817	1.0
4	-24.64799881	-15.72700024	26.82600021	30.15343666	21.14214134	-10.25145817	1.0
5	-24.64799881	-15.72700024	26.82600021	30.15343666	21.14214134	-10.25145817	1.0
[RightHandThumb2]
3	-32.29800034	-18.64699936	18.64699936	10.94593716	-22.35762978	0.886318624	1.0
4	-32.29800034	-18.64699936	18.64699936	11.97094727	-21.9551506	1.320593834	1.0
5	-32.29800034	-18.64699936	18.64699936	13.2351408	-21.44138336	1.9283849	1.0
[RightHandThumb3]
3	-26.52600098	-15.31399918	15.31399918	-11.86486816	-13.63085842	-10.34186745	1.0
4	-26.52600098	-15.31399918	15.31399918	-11.90707588	-13.53436661	-10.36861706	1.0
5	-26.52600098	-15.31399918	15.31399918	-11.96259499	-13.40470982	-10.40331268	1.0
[RightHandThumb4]
3	-19.54599953	-11.28499985	11.28499985	0	0	0	1.0
4	-19.54599953	-11.28499985	11.28499985	0	0	0	1.0
5	-19.54599953	-11.28499985	11.28499985	0	0	0	1.0
[LeftUpLeg]
3	82.07800293	-67.51699829	-15.99599934	-36.73949814	12.46469975	1.153913736	1.0
4	82.07800293	-67.51699829	-15.99599934	-36.57146454	11.89317131	4.290278435	1.0
5	82.07800293	-67.51699829	-15.99599934	-36.54842377	12.36311054	8.46736908	1.0
[LeftLeg]
3	0	-443.7049866	2.845999956	39.09090805	-0.5848207474	-0.7363144159	1.0
4	0	-443.7049866	2.845999956	24.34816742	-0.8720616698	-0.4682685435	1.0
5	0	-443.7049866	2.845999956	11.73514462	-0.6756748557	-0.1334599704	1.0
[LeftFoot]
3	0	-444.2789917	-29.8219986	-4.087464333	-0.02581628785	-2.715422153	1.0
4	0	-444.2789917	-29.8219986	-4.057988644	-0.0270130448	-6.220877647	1.0
5	0	-444.2789917	-29.8219986	-5.649740696	-0.1759248972	-9.314331055	1.0
[LeftToeBase]
3	0	-87.28699493	107.1060028	-6.770026684	-6.069091341e-06	-2.210901812e-06	1.0
4	0	-87.28699493	107.1060028	-4.810664177	-1.44148753e-05	-6.696480796e-06	1.0
5	0	-87.28699493	107.1060028	-4.014437199	-2.674156713e-05	-9.217567822e-06	1.0
[RightUpLeg]
3	-82.07800293	-67.51699829	-15.99599934	-17.62991142	-1.771141768	-1.64022851	1.0
4	-82.07800293	-67.51699829	-15.99599934	-14.021945	-2.093860626	-2.370316982	1.0
5	-82.07800293	-67.51699829	-15.99599934	-10.65798473	-2.29294014	-2.623699665	1.0
[RightLeg]
3	0	-443.7049866	2.861999989	23.0865345	6.277077675	2.744716644	1.0
4	0	-443.7049866	2.861999989	21.51502419	6.985376835	2.833718777	1.0
5	0	-443.7049866	2.861999989	20.97464371	7.990920067	3.152971506	1.0
[RightFoot]
3	0	-444.2770081	-29.83799934	-13.33056831	1.250185132	0.6856455803	1.0
4	0	-444.2770081	-29.83799934	-15.74743843	1.843917966	1.480136752	1.0
5	0	-444.2770081	-29.83799934	-18.79513359	2.718371153	2.227757215	1.0
[RightToeBase]
3	0	-87.28699493	107.1060028	-6.010783672	-2.401538268e-06	-2.09081486e-06	1.0
4	0	-87.28699493	107.1060028	-6.010780811	7.668783837e-06	-1.009531843e-06	1.0
5	0	-87.28699493	107.1060028	-6.010779381	7.054142316e-06	3.098074558e-06	1.0
[EndOfFile]
